<svg width="39" height="40" viewBox="0 0 39 40" fill="none" xmlns="http://www.w3.org/2000/svg">
<path d="M38.3897 18.3055L36.7821 16.4459C36.2801 15.8653 36.0717 15.0868 36.2164 14.3331L36.6794 11.9222C36.9145 10.698 36.2146 9.48696 35.0365 9.07946L32.7182 8.27767C31.9911 8.02614 31.4196 7.45473 31.1681 6.72748L30.3663 4.40926C29.9588 3.23116 28.7477 2.53125 27.5236 2.76631L25.1126 3.2293C24.3588 3.37405 23.5804 3.16562 22.9998 2.66361L21.1402 1.05594C20.1985 0.241769 18.802 0.241769 17.8603 1.05594L16.0007 2.6635C15.4201 3.16551 14.6416 3.37381 13.8879 3.22918L11.4769 2.76619C10.2527 2.53113 9.04164 3.23105 8.63415 4.40914L7.83236 6.72736C7.58083 7.4545 7.00942 8.02602 6.28216 8.27755L3.96395 9.07934C2.78585 9.48684 2.08594 10.6979 2.32099 11.922L2.78398 14.333C2.92873 15.0868 2.72031 15.8652 2.2183 16.4458L0.610631 18.3054C-0.203544 19.2471 -0.203544 20.6436 0.610631 21.5853L2.21818 23.4449C2.72019 24.0255 2.92862 24.804 2.78387 25.5577L2.32088 27.9687C2.08582 29.1929 2.78562 30.404 3.96383 30.8113L6.28205 31.6131C7.00919 31.8647 7.58071 32.4361 7.83224 33.1633L8.63403 35.4815C9.04153 36.6596 10.2526 37.3596 11.4767 37.1245L13.8877 36.6615C14.6414 36.5168 15.4199 36.7252 16.0005 37.2272L17.8601 38.8349C18.8018 39.649 20.1983 39.649 21.14 38.8349L22.9996 37.2273C23.5802 36.7253 24.3587 36.5169 25.1124 36.6616L27.5234 37.1246C28.7476 37.3597 29.9587 36.6599 30.3661 35.4817L31.1679 33.1634C31.4195 32.4363 31.9909 31.8648 32.7181 31.6133L35.0363 30.8115C36.2144 30.404 36.9144 29.1929 36.6793 27.9687L36.2163 25.5577C36.0716 24.8039 36.28 24.0255 36.782 23.4449L38.3897 21.5853C39.2038 20.6436 39.2038 19.2471 38.3897 18.3054V18.3055Z" fill="white"/>
<path d="M38.0231 18.646L38.0114 18.6325L36.4039 16.7729C35.8018 16.0765 35.5518 15.1428 35.7254 14.2388L36.1884 11.8279C36.3766 10.8478 35.8162 9.87823 34.873 9.55199L32.5548 8.7502L32.7182 8.27767L32.5548 8.7502C31.6827 8.44852 30.9972 7.7632 30.6955 6.89091L29.8937 4.57269C29.5675 3.6295 28.5979 3.06915 27.6179 3.25734L25.2069 3.72032C24.3028 3.89394 23.3692 3.64395 22.6728 3.04185L20.8132 1.43418C20.0593 0.782354 18.9413 0.782354 18.1873 1.43419L17.8603 1.05594L18.1873 1.4342L16.3278 3.04173C15.6313 3.64387 14.6975 3.89368 13.7937 3.72022L13.7936 3.72021L11.3826 3.25722C11.3826 3.25722 11.3826 3.25722 11.3826 3.25722C10.4025 3.06903 9.43292 3.6294 9.10668 4.57259L8.30489 6.89079L8.30488 6.89082C8.00321 7.76291 7.31788 8.4484 6.4456 8.75009L4.12739 9.55187C3.18419 9.87812 2.62384 10.8477 2.81202 11.8277L3.27501 14.2387C3.44863 15.1428 3.19863 16.0764 2.59653 16.7728M38.0231 18.646L2.59653 16.7728M38.0231 18.646C38.6632 19.3998 38.6593 20.5089 38.0114 21.2583L36.4038 23.1179C35.8017 23.8143 35.5517 24.7479 35.7253 25.652L36.1883 28.063C36.3765 29.0431 35.8161 30.0127 34.8729 30.3389L32.5547 31.1407C31.6824 31.4424 30.9971 32.1279 30.6954 33L31.1679 33.1634L30.6954 33L29.8936 35.3182C29.5674 36.2615 28.5978 36.8218 27.6177 36.6336L25.2067 36.1706C24.3027 35.997 23.3689 36.247 22.6725 36.8491L20.813 38.4566L21.14 38.8349L20.813 38.4566C20.059 39.1085 18.941 39.1085 18.1871 38.4566L16.3275 36.849C15.6311 36.2469 14.6975 35.9969 13.7934 36.1705L11.3824 36.6335C10.4024 36.8217 9.43281 36.2613 9.10656 35.3181L8.30477 32.9999C8.00308 32.1276 7.3176 31.4423 6.4455 31.1406L6.44548 31.1406L4.12726 30.3388L4.12722 30.3388C3.184 30.0127 2.62371 29.0431 2.8119 28.063L3.27489 25.652C3.44851 24.748 3.19852 23.8143 2.59642 23.1179L0.988884 21.2583L0.610772 21.5852L0.988875 21.2583C0.337042 20.5043 0.337042 19.3863 0.988872 18.6324L2.59653 16.7728M38.0231 18.646L2.2183 16.4458L2.59653 16.7728" stroke="#ED1C24" stroke-opacity="0.15"/>
<path d="M19.2829 11.9057C19.5134 11.4388 19.6287 11.2053 19.7851 11.1307C19.9212 11.0658 20.0794 11.0658 20.2155 11.1307C20.372 11.2053 20.4872 11.4388 20.7177 11.9057L22.9044 16.3358C22.9725 16.4737 23.0065 16.5426 23.0562 16.5961C23.1003 16.6435 23.1531 16.6819 23.2117 16.7092C23.278 16.74 23.354 16.7511 23.5061 16.7733L28.3976 17.4883C28.9126 17.5636 29.1702 17.6012 29.2894 17.727C29.3931 17.8365 29.4418 17.9869 29.4221 18.1364C29.3994 18.3082 29.213 18.4898 28.84 18.853L25.3019 22.2992C25.1916 22.4066 25.1365 22.4603 25.1009 22.5242C25.0694 22.5808 25.0492 22.643 25.0414 22.7073C25.0326 22.7799 25.0456 22.8558 25.0716 23.0075L25.9064 27.875C25.9945 28.3884 26.0385 28.6451 25.9558 28.7974C25.8838 28.93 25.7558 29.0229 25.6075 29.0504C25.4371 29.082 25.2066 28.9608 24.7456 28.7184L20.3727 26.4187C20.2364 26.3471 20.1683 26.3112 20.0965 26.2972C20.033 26.2847 19.9676 26.2847 19.9041 26.2972C19.8323 26.3112 19.7642 26.3471 19.6279 26.4187L15.2551 28.7184C14.794 28.9608 14.5635 29.082 14.3931 29.0504C14.2448 29.0229 14.1168 28.93 14.0448 28.7974C13.9621 28.6451 14.0061 28.3884 14.0942 27.875L14.929 23.0075C14.955 22.8558 14.9681 22.7799 14.9593 22.7073C14.9515 22.643 14.9312 22.5808 14.8997 22.5242C14.8642 22.4603 14.809 22.4066 14.6987 22.2992L11.1606 18.853C10.7877 18.4898 10.6012 18.3082 10.5785 18.1364C10.5588 17.9869 10.6076 17.8365 10.7113 17.727C10.8304 17.6012 11.088 17.5636 11.6031 17.4883L16.4945 16.7733C16.6466 16.7511 16.7227 16.74 16.7889 16.7092C16.8476 16.6819 16.9004 16.6435 16.9444 16.5961C16.9941 16.5426 17.0281 16.4737 17.0962 16.3358L19.2829 11.9057Z" fill="url(#paint0_linear_6113_9379)"/>
<defs>
<linearGradient id="paint0_linear_6113_9379" x1="10.5742" y1="29.0554" x2="28.5271" y2="10.2246" gradientUnits="userSpaceOnUse">
<stop stop-color="#BD1329"/>
<stop offset="1" stop-color="#FF8D4C"/>
</linearGradient>
</defs>
</svg>
